<svg id="Calque_1" data-name="Calque 1" xmlns="http://www.w3.org/2000/svg" viewBox="0 0 207.75 143"><defs><style>.cls-1{fill:#e84961;}.cls-2{fill:#0f364f;}.cls-3{fill:#f6f6f6;}</style></defs><title>logo_pingPong</title><rect class="cls-1" x="148.25" width="59.5" height="143"/><path class="cls-2" d="M299.25,443.24V402h12a12.68,12.68,0,0,1,4.17.62,8.11,8.11,0,0,1,3.16,2,9,9,0,0,1,2.08,3.87,21.91,21.91,0,0,1,.71,6,27.12,27.12,0,0,1-.43,5.19,11.52,11.52,0,0,1-1.46,3.84,6.38,6.38,0,0,1-2.94,2.52,11.52,11.52,0,0,1-4.67.84h-3.7v16.33h-9Zm9-33.72v10h0.52q0.72,0,1.1,0a5.32,5.32,0,0,0,.88-0.18,1.37,1.37,0,0,0,.75-0.47,4.89,4.89,0,0,0,.5-0.88,4.57,4.57,0,0,0,.35-1.44q0.09-.88.09-2.12a7.21,7.21,0,0,0-.71-3.78,2.76,2.76,0,0,0-2.47-1.06h-1Z" transform="translate(-299.25 -328)"/><path class="cls-2" d="M324.09,443.24V402h8.8v41.22h-8.8Z" transform="translate(-299.25 -328)"/><path class="cls-2" d="M359.75,402v41.22h-8.9l-4.55-20.62v20.63h-8.9V402h9.37L351,421.74V402h8.8Z" transform="translate(-299.25 -328)"/><path class="cls-2" d="M382.61,443.24l-1.55-3.49a8.19,8.19,0,0,1-7.5,4q-9.86,0-9.86-12.76V413.09a15.16,15.16,0,0,1,.78-5.1,9.38,9.38,0,0,1,1.9-3.35,8.28,8.28,0,0,1,2.76-1.88,12,12,0,0,1,3-.89,20,20,0,0,1,2.89-.19,20.26,20.26,0,0,1,3.47.27,9.59,9.59,0,0,1,2.68.84,10.47,10.47,0,0,1,2,1.28,5.83,5.83,0,0,1,1.41,1.76,14.29,14.29,0,0,1,.91,2.07,12.53,12.53,0,0,1,.53,2.46q0.18,1.44.25,2.68t0.06,2.92h-8.7V412.7a5.44,5.44,0,0,0-.21-1.63,1.75,1.75,0,0,0-.58-0.92,2.3,2.3,0,0,0-.69-0.36,2.49,2.49,0,0,0-.7-0.09,3.21,3.21,0,0,0-1.26.21,2.07,2.07,0,0,0-.75.52,2.31,2.31,0,0,0-.4,1.13,12.67,12.67,0,0,0-.16,1.54q0,0.73,0,2.28v15.94a15,15,0,0,0,.06,1.53,6.64,6.64,0,0,0,.3,1.35,2.07,2.07,0,0,0,.76,1.1,2.29,2.29,0,0,0,1.36.38,1.78,1.78,0,0,0,1.82-1.07,9.69,9.69,0,0,0,.45-3.48v-4.76h-2.43v-7.12h11v24h-3.55Z" transform="translate(-299.25 -328)"/><path class="cls-2" d="M402.64,443.24V402h12a12.69,12.69,0,0,1,4.17.62,8.12,8.12,0,0,1,3.16,2,9,9,0,0,1,2.08,3.87,21.89,21.89,0,0,1,.71,6,27.12,27.12,0,0,1-.43,5.19,11.5,11.5,0,0,1-1.46,3.84,6.38,6.38,0,0,1-2.94,2.52,11.52,11.52,0,0,1-4.67.84h-3.7v16.33h-9Zm9-33.72v10h0.52c0.48,0,.85,0,1.1,0a5.31,5.31,0,0,0,.88-0.18,1.37,1.37,0,0,0,.75-0.47,4.89,4.89,0,0,0,.5-0.88,4.54,4.54,0,0,0,.35-1.44,21.09,21.09,0,0,0,.09-2.12,7.2,7.2,0,0,0-.71-3.78,2.76,2.76,0,0,0-2.47-1.06h-1Z" transform="translate(-299.25 -328)"/><path class="cls-2" d="M426.94,432.11V412.47q0-5.15,2.78-8t8.37-2.91q5.75,0.08,8.53,2.91t2.78,8v19.64a15.46,15.46,0,0,1-.63,4.57,10.87,10.87,0,0,1-1.93,3.66,8.35,8.35,0,0,1-3.51,2.48,12.73,12.73,0,0,1-5.08.8,13.22,13.22,0,0,1-5.24-.8,8.34,8.34,0,0,1-3.51-2.48,10.86,10.86,0,0,1-1.93-3.66A15.46,15.46,0,0,1,426.94,432.11Zm11.23,3.44a1.87,1.87,0,0,0,.87-0.19,1.41,1.41,0,0,0,.59-0.6A5.28,5.28,0,0,0,440,434a4,4,0,0,0,.18-1q0.05-.61.06-0.93c0-.22,0-0.51,0-0.89V414.44q0-.16,0-0.62t0-.7c0-.16,0-0.38,0-0.69a3.3,3.3,0,0,0-.08-0.7l-0.16-.62a1.48,1.48,0,0,0-.25-0.57q-0.16-.19-0.36-0.41a1.15,1.15,0,0,0-.52-0.31,2.53,2.53,0,0,0-.7-0.09,2.29,2.29,0,0,0-.94.18,1.38,1.38,0,0,0-.63.58q-0.23.4-.39,0.72a2.84,2.84,0,0,0-.21,1q-0.05.63-.05,0.91V430.9q0,0.57,0,.91t0.07,1a4.2,4.2,0,0,0,.19,1,6.25,6.25,0,0,0,.38.84,1.56,1.56,0,0,0,.63.66A1.93,1.93,0,0,0,438.17,435.55Z" transform="translate(-299.25 -328)"/><path class="cls-2" d="M475.72,402v41.22h-8.9l-4.55-20.62v20.63h-8.9V402h9.37l4.19,19.72V402h8.8Z" transform="translate(-299.25 -328)"/><path class="cls-2" d="M498.57,443.24L497,439.75a8.19,8.19,0,0,1-7.5,4q-9.86,0-9.86-12.76V413.09a15.16,15.16,0,0,1,.78-5.1,9.38,9.38,0,0,1,1.9-3.35,8.27,8.27,0,0,1,2.76-1.88,12,12,0,0,1,3-.89,20,20,0,0,1,2.88-.19,20.27,20.27,0,0,1,3.47.27,9.58,9.58,0,0,1,2.68.84,10.51,10.51,0,0,1,2,1.28,5.84,5.84,0,0,1,1.41,1.76,14.35,14.35,0,0,1,.91,2.07,12.46,12.46,0,0,1,.53,2.46q0.18,1.44.25,2.68t0.06,2.92h-8.7V412.7a5.41,5.41,0,0,0-.21-1.63,1.75,1.75,0,0,0-.58-0.92,2.3,2.3,0,0,0-.69-0.36,2.49,2.49,0,0,0-.7-0.09,3.21,3.21,0,0,0-1.25.21,2.07,2.07,0,0,0-.75.52,2.31,2.31,0,0,0-.4,1.13,12.48,12.48,0,0,0-.16,1.54q0,0.73,0,2.28v15.94a14.84,14.84,0,0,0,.07,1.53,6.61,6.61,0,0,0,.3,1.35,2.06,2.06,0,0,0,.76,1.1,2.29,2.29,0,0,0,1.36.38,1.78,1.78,0,0,0,1.83-1.07,9.69,9.69,0,0,0,.45-3.48v-4.76h-2.43v-7.12h11v24h-3.54Z" transform="translate(-299.25 -328)"/><path class="cls-1" d="M342.33,469q-4.19,0-6-1.91t-1.79-5.91v-2.67h5.95V461q0,2.63,1.44,2.63a1.24,1.24,0,0,0,1.05-.51,2.19,2.19,0,0,0,.38-1.35,5,5,0,0,0-.3-1.85,4.8,4.8,0,0,0-.91-1.43,23.92,23.92,0,0,0-2-1.87l-2.55-2.21a7.78,7.78,0,0,1-3.08-6q0-3.62,1.85-5.39a7.08,7.08,0,0,1,5.1-1.77h1.06a8.06,8.06,0,0,1,2.15.38,6.12,6.12,0,0,1,2.34,1.28,5.42,5.42,0,0,1,1.54,2.49,12.91,12.91,0,0,1,.51,3.91H343l0-1.64a1.17,1.17,0,0,0-.39-0.82,1.19,1.19,0,0,0-.84-0.36,1.49,1.49,0,0,0-1,.37,1.2,1.2,0,0,0-.42.95q0,1.16,1.69,2.53l3.64,2.94a12.75,12.75,0,0,1,1.55,1.46,7.6,7.6,0,0,1,1,1.47q0.38,0.73.62,1.32a5.31,5.31,0,0,1,.33,1.28c0.06,0.46.1,0.81,0.11,1s0,0.54,0,.91a16.53,16.53,0,0,1-.19,2.61,9.17,9.17,0,0,1-.67,2.26,5.45,5.45,0,0,1-1.26,1.81,5.56,5.56,0,0,1-2,1.15A8.85,8.85,0,0,1,342.33,469Z" transform="translate(-299.25 -328)"/><path class="cls-1" d="M350.34,441.48H363.5v5.25h-3.57v22h-6v-22h-3.57v-5.25Z" transform="translate(-299.25 -328)"/><path class="cls-1" d="M375.89,441.48l3,27.22h-5.81l-0.43-4.1h-3l-0.38,4.1H363.4l3.08-27.22h9.42Zm-4.49,5.11h-0.55L370,459.65h2.15Z" transform="translate(-299.25 -328)"/><path class="cls-1" d="M386.83,456.31v12.39h-6.08V441.48H390a6.83,6.83,0,0,1,2.43.38,4.15,4.15,0,0,1,1.59,1,4.35,4.35,0,0,1,.91,1.66,9.89,9.89,0,0,1,.44,2.07q0.1,1,.1,2.5c0,0.51,0,.93,0,1.26a7.94,7.94,0,0,1-.19,1.23,4.27,4.27,0,0,1-.45,1.24,3.72,3.72,0,0,1-.88,1,4.19,4.19,0,0,1-1.43.73,3.19,3.19,0,0,1,1.38.57,2.37,2.37,0,0,1,.79,1,5.76,5.76,0,0,1,.32,1.14,7.34,7.34,0,0,1,.09,1.17q0,6.75-.07,10.25H389.1V458.09a3.22,3.22,0,0,0-.13-1,0.89,0.89,0,0,0-.48-0.54,2.16,2.16,0,0,0-.68-0.2Q387.5,456.31,386.83,456.31Zm0-9.79v5.08h1.5q1.2,0,1.2-2.5a3.18,3.18,0,0,0-.47-2.12,2.81,2.81,0,0,0-1.91-.46h-0.32Z" transform="translate(-299.25 -328)"/><path class="cls-1" d="M396.64,441.48H409.8v5.25h-3.57v22h-6v-22h-3.57v-5.25Z" transform="translate(-299.25 -328)"/><path class="cls-1" d="M411.56,461.49v-20h5.84v19.6q0,0.45,0,.7a5.34,5.34,0,0,0,.08.7,2.25,2.25,0,0,0,.22.7,1.36,1.36,0,0,0,.44.45,1.25,1.25,0,0,0,.72.2,1.5,1.5,0,0,0,.62-0.12,0.94,0.94,0,0,0,.42-0.37,3.3,3.3,0,0,0,.25-0.48,2.21,2.21,0,0,0,.13-0.62c0-.26,0-0.45,0-0.59s0-.33,0-0.58v-19.6h5.85v20a8,8,0,0,1-1.77,5.61q-1.77,1.92-5.51,1.9t-5.58-1.9A8,8,0,0,1,411.56,461.49Z" transform="translate(-299.25 -328)"/><path class="cls-1" d="M429.08,468.71V441.48H437a8.38,8.38,0,0,1,2.75.41,5.36,5.36,0,0,1,2.08,1.33,5.93,5.93,0,0,1,1.38,2.56,14.48,14.48,0,0,1,.47,4,18,18,0,0,1-.28,3.43,7.61,7.61,0,0,1-1,2.54,4.22,4.22,0,0,1-1.94,1.67,7.61,7.61,0,0,1-3.09.56H435v10.78h-5.91ZM435,446.44V453h0.34c0.32,0,.56,0,0.73,0a3.57,3.57,0,0,0,.58-0.12,0.9,0.9,0,0,0,.5-0.31,3.24,3.24,0,0,0,.33-0.58,3,3,0,0,0,.23-0.95q0.06-.58.06-1.4a4.77,4.77,0,0,0-.47-2.5,1.82,1.82,0,0,0-1.63-.7H435Z" transform="translate(-299.25 -328)"/><path class="cls-3" d="M468.21,457v5.14q0,3.56-2,5.22a8.61,8.61,0,0,1-5.64,1.67,7.46,7.46,0,0,1-5.23-1.84,6.7,6.7,0,0,1-2-5.22V449.32q0-4,1.79-6.06t5.6-2a10.22,10.22,0,0,1,2.87.38,7.35,7.35,0,0,1,2.33,1.14,5.18,5.18,0,0,1,1.6,2,6.47,6.47,0,0,1,.58,2.81v4.8h-5.95v-3.16q0-2.44-1.44-2.44a1.14,1.14,0,0,0-1.13.54,3.35,3.35,0,0,0-.27,1.5v12.87a2.69,2.69,0,0,0,.38,1.45,1.16,1.16,0,0,0,1,.62,1.35,1.35,0,0,0,1-.45,2.36,2.36,0,0,0,.43-1.62V457h6.08Z" transform="translate(-299.25 -328)"/><path class="cls-3" d="M470.57,461.49v-20h5.84v19.6c0,0.3,0,.53,0,0.7a5.37,5.37,0,0,0,.08.7,2.19,2.19,0,0,0,.22.7,1.35,1.35,0,0,0,.44.45,1.24,1.24,0,0,0,.72.2,1.5,1.5,0,0,0,.62-0.12,0.94,0.94,0,0,0,.42-0.37,3.21,3.21,0,0,0,.25-0.48,2.21,2.21,0,0,0,.13-0.62c0-.26,0-0.45,0-0.59s0-.33,0-0.58v-19.6h5.84v20a8,8,0,0,1-1.77,5.61q-1.77,1.92-5.51,1.9t-5.58-1.9A8,8,0,0,1,470.57,461.49Z" transform="translate(-299.25 -328)"/><path class="cls-3" d="M488.09,468.71V441.48H496a8.38,8.38,0,0,1,2.75.41,5.36,5.36,0,0,1,2.08,1.33,5.91,5.91,0,0,1,1.38,2.56,14.44,14.44,0,0,1,.47,4,18,18,0,0,1-.28,3.43,7.63,7.63,0,0,1-1,2.54,4.21,4.21,0,0,1-1.94,1.67,7.61,7.61,0,0,1-3.08.56H494v10.78h-5.91ZM494,446.44V453h0.34c0.32,0,.56,0,0.73,0a3.58,3.58,0,0,0,.58-0.12,0.9,0.9,0,0,0,.5-0.31,3.24,3.24,0,0,0,.33-0.58,3,3,0,0,0,.23-0.95,13.9,13.9,0,0,0,.06-1.4,4.76,4.76,0,0,0-.47-2.5,1.82,1.82,0,0,0-1.63-.7H494Z" transform="translate(-299.25 -328)"/></svg>