<svg id="Calque_1" data-name="Calque 1" xmlns="http://www.w3.org/2000/svg" viewBox="0 0 328.75 349"><defs><style>.cls-1{fill:#e84961;}.cls-2{fill:#0f364f;}.cls-3{fill:#f6f6f6;}</style></defs><title>logo_pingPong_FO</title><rect class="cls-1" x="234.6" width="94.15" height="349"/><path class="cls-2" d="M36.65,534.11V468.87h19a20.07,20.07,0,0,1,6.59,1,12.84,12.84,0,0,1,5,3.19,14.18,14.18,0,0,1,3.3,6.12,34.67,34.67,0,0,1,1.13,9.48,42.92,42.92,0,0,1-.68,8.21,18.22,18.22,0,0,1-2.31,6.08,10.09,10.09,0,0,1-4.65,4,18.23,18.23,0,0,1-7.39,1.33H50.82v25.84H36.65Zm14.17-53.36v15.77h0.82q1.15,0,1.74-.06a8.41,8.41,0,0,0,1.39-.29,2.17,2.17,0,0,0,1.19-.74,7.73,7.73,0,0,0,.8-1.39,7.23,7.23,0,0,0,.55-2.27q0.14-1.39.14-3.36,0-4.3-1.13-6a4.36,4.36,0,0,0-3.91-1.68h-1.6Z" transform="translate(-36.65 -255.59)"/><path class="cls-2" d="M76,534.11V468.87H89.89v65.24H76Z" transform="translate(-36.65 -255.59)"/><path class="cls-2" d="M132.4,468.87v65.24H118.31l-7.21-32.64v32.64H97V468.87h14.82l6.63,31.21V468.87H132.4Z" transform="translate(-36.65 -255.59)"/><path class="cls-2" d="M168.56,534.11l-2.46-5.53q-3.85,6.27-11.88,6.26-15.6,0-15.6-20.19V486.4a24,24,0,0,1,1.23-8.07,14.84,14.84,0,0,1,3-5.3,13.1,13.1,0,0,1,4.36-3,19,19,0,0,1,4.69-1.41,31.63,31.63,0,0,1,4.57-.31,32.06,32.06,0,0,1,5.49.43,15.17,15.17,0,0,1,4.24,1.33,16.57,16.57,0,0,1,3.13,2,9.22,9.22,0,0,1,2.23,2.78,22.62,22.62,0,0,1,1.43,3.28,19.83,19.83,0,0,1,.84,3.89q0.29,2.27.39,4.24t0.1,4.63H160.57v-5.16a8.62,8.62,0,0,0-.33-2.58,2.77,2.77,0,0,0-.92-1.45,3.64,3.64,0,0,0-1.08-.57,3.94,3.94,0,0,0-1.11-.14,5.08,5.08,0,0,0-2,.33,3.27,3.27,0,0,0-1.19.82,3.65,3.65,0,0,0-.64,1.78,20.05,20.05,0,0,0-.25,2.44q0,1.15,0,3.6v25.23a23.73,23.73,0,0,0,.1,2.42,10.51,10.51,0,0,0,.47,2.13,3.27,3.27,0,0,0,1.21,1.74,3.63,3.63,0,0,0,2.15.59,2.82,2.82,0,0,0,2.89-1.7,15.34,15.34,0,0,0,.72-5.51v-7.54h-3.85V496.1h17.45v38h-5.61Z" transform="translate(-36.65 -255.59)"/><path class="cls-2" d="M200.25,534.11V468.87h19a20.08,20.08,0,0,1,6.59,1,12.85,12.85,0,0,1,5,3.19,14.17,14.17,0,0,1,3.3,6.12,34.63,34.63,0,0,1,1.13,9.48,42.92,42.92,0,0,1-.68,8.21,18.21,18.21,0,0,1-2.31,6.08,10.09,10.09,0,0,1-4.65,4,18.23,18.23,0,0,1-7.39,1.33h-5.86v25.84H200.25Zm14.17-53.36v15.77h0.82c0.76,0,1.34,0,1.74-.06a8.4,8.4,0,0,0,1.39-.29,2.17,2.17,0,0,0,1.19-.74,7.73,7.73,0,0,0,.8-1.39,7.19,7.19,0,0,0,.55-2.27,33.37,33.37,0,0,0,.14-3.36q0-4.3-1.13-6a4.36,4.36,0,0,0-3.91-1.68h-1.6Z" transform="translate(-36.65 -255.59)"/><path class="cls-2" d="M238.71,516.5V485.42q0-8.15,4.4-12.63t13.25-4.61q9.09,0.12,13.49,4.61t4.4,12.63V516.5a24.46,24.46,0,0,1-1,7.23,17.2,17.2,0,0,1-3.05,5.8,13.22,13.22,0,0,1-5.55,3.93,20.15,20.15,0,0,1-8,1.27,20.92,20.92,0,0,1-8.29-1.27,13.2,13.2,0,0,1-5.55-3.93,17.18,17.18,0,0,1-3.05-5.8A24.46,24.46,0,0,1,238.71,516.5Zm17.77,5.45a3,3,0,0,0,1.37-.31,2.23,2.23,0,0,0,.94-0.94,8.35,8.35,0,0,0,.55-1.21,6.36,6.36,0,0,0,.29-1.54q0.08-1,.1-1.47c0-.34,0-0.81,0-1.41V488.53q0-.25,0-1t0-1.11c0-.25,0-0.61,0-1.08a5.22,5.22,0,0,0-.12-1.11q-0.1-.39-0.25-1a2.34,2.34,0,0,0-.39-0.9q-0.25-.31-0.57-0.66a1.82,1.82,0,0,0-.82-0.49,4,4,0,0,0-1.11-.14,3.62,3.62,0,0,0-1.49.29,2.19,2.19,0,0,0-1,.92q-0.37.64-.62,1.15a4.49,4.49,0,0,0-.33,1.52q-0.08,1-.08,1.43v28.2q0,0.9,0,1.43t0.1,1.56a6.64,6.64,0,0,0,.31,1.66,9.89,9.89,0,0,0,.59,1.33,2.46,2.46,0,0,0,1,1A3,3,0,0,0,256.48,521.95Z" transform="translate(-36.65 -255.59)"/><path class="cls-2" d="M315.9,468.87v65.24H301.81l-7.21-32.64v32.64H280.52V468.87h14.82L302,500.08V468.87H315.9Z" transform="translate(-36.65 -255.59)"/><path class="cls-2" d="M352.06,534.11l-2.46-5.53q-3.85,6.27-11.88,6.26-15.6,0-15.6-20.19V486.4a24,24,0,0,1,1.23-8.07,14.84,14.84,0,0,1,3-5.3,13.08,13.08,0,0,1,4.36-3,19,19,0,0,1,4.69-1.41,31.61,31.61,0,0,1,4.56-.31,32.07,32.07,0,0,1,5.49.43,15.17,15.17,0,0,1,4.24,1.33,16.63,16.63,0,0,1,3.13,2,9.23,9.23,0,0,1,2.23,2.78,22.71,22.71,0,0,1,1.43,3.28,19.72,19.72,0,0,1,.84,3.89q0.29,2.27.39,4.24t0.1,4.63H344.07v-5.16a8.57,8.57,0,0,0-.33-2.58,2.76,2.76,0,0,0-.92-1.45,3.64,3.64,0,0,0-1.08-.57,3.93,3.93,0,0,0-1.11-.14,5.07,5.07,0,0,0-2,.33,3.27,3.27,0,0,0-1.19.82,3.65,3.65,0,0,0-.64,1.78,19.75,19.75,0,0,0-.25,2.44q0,1.15,0,3.6v25.23a23.48,23.48,0,0,0,.1,2.42,10.46,10.46,0,0,0,.47,2.13,3.26,3.26,0,0,0,1.21,1.74,3.63,3.63,0,0,0,2.15.59,2.82,2.82,0,0,0,2.89-1.7,15.33,15.33,0,0,0,.72-5.51v-7.54h-3.85V496.1h17.44v38h-5.61Z" transform="translate(-36.65 -255.59)"/><path class="cls-1" d="M104.82,574.89q-6.63,0-9.45-3t-2.83-9.36v-4.22H102v3.87q0,4.17,2.27,4.16a2,2,0,0,0,1.66-.81,3.46,3.46,0,0,0,.61-2.14,8,8,0,0,0-.47-2.92,7.6,7.6,0,0,0-1.43-2.26,37.85,37.85,0,0,0-3.15-3l-4-3.49q-4.87-4.19-4.87-9.46,0-5.73,2.93-8.53t8.07-2.8h1.68a12.75,12.75,0,0,1,3.41.61,9.69,9.69,0,0,1,3.7,2,8.58,8.58,0,0,1,2.43,3.95,20.43,20.43,0,0,1,.81,6.18h-9.65l-0.05-2.6a1.85,1.85,0,0,0-.62-1.3,1.88,1.88,0,0,0-1.33-.57,2.35,2.35,0,0,0-1.61.58,1.9,1.9,0,0,0-.66,1.5q0,1.84,2.68,4l5.76,4.65a20.18,20.18,0,0,1,2.45,2.31,12,12,0,0,1,1.65,2.32q0.61,1.15,1,2.08a8.41,8.41,0,0,1,.53,2c0.1,0.73.16,1.28,0.18,1.65s0,0.85,0,1.45a26.16,26.16,0,0,1-.3,4.12,14.51,14.51,0,0,1-1.05,3.57,8.63,8.63,0,0,1-2,2.87,8.8,8.8,0,0,1-3.19,1.83A14,14,0,0,1,104.82,574.89Z" transform="translate(-36.65 -255.59)"/><path class="cls-1" d="M117.5,531.32h20.82v8.3h-5.65V574.4h-9.52V539.62H117.5v-8.3Z" transform="translate(-36.65 -255.59)"/><path class="cls-1" d="M157.93,531.32l4.76,43.08H153.5l-0.68-6.49H148l-0.59,6.49h-9.25L143,531.32h14.9Zm-7.11,8.09H150l-1.27,20.66h3.41Z" transform="translate(-36.65 -255.59)"/><path class="cls-1" d="M175.24,554.8V574.4h-9.63V531.32h14.6a10.81,10.81,0,0,1,3.84.61,6.56,6.56,0,0,1,2.52,1.59,6.88,6.88,0,0,1,1.45,2.62,15.65,15.65,0,0,1,.69,3.27q0.16,1.64.16,4c0,0.81,0,1.47,0,2a12.56,12.56,0,0,1-.3,1.95,6.76,6.76,0,0,1-.72,2,5.89,5.89,0,0,1-1.39,1.54,6.64,6.64,0,0,1-2.26,1.16,5,5,0,0,1,2.19.91,3.75,3.75,0,0,1,1.24,1.64,9.12,9.12,0,0,1,.51,1.8,11.61,11.61,0,0,1,.14,1.85q0,10.68-.11,16.23h-9.3V557.61a5.1,5.1,0,0,0-.2-1.59,1.4,1.4,0,0,0-.76-0.85,3.42,3.42,0,0,0-1.07-.31Q176.3,554.8,175.24,554.8Zm0.05-15.5v8h2.38q1.89,0,1.89-3.95,0-2.62-.74-3.35a4.44,4.44,0,0,0-3-.73H175.3Z" transform="translate(-36.65 -255.59)"/><path class="cls-1" d="M190.76,531.32h20.82v8.3h-5.65V574.4h-9.52V539.62h-5.65v-8.3Z" transform="translate(-36.65 -255.59)"/><path class="cls-1" d="M214.37,563V531.32h9.25v31q0,0.7,0,1.11a8.44,8.44,0,0,0,.13,1.11,3.55,3.55,0,0,0,.35,1.11,2.14,2.14,0,0,0,.69.72,2,2,0,0,0,1.14.31,2.37,2.37,0,0,0,1-.19,1.49,1.49,0,0,0,.66-0.58,5.22,5.22,0,0,0,.39-0.76,3.5,3.5,0,0,0,.2-1c0-.41.06-0.72,0.07-0.93s0-.52,0-0.92v-31h9.25V563q0,5.84-2.8,8.87t-8.72,3q-6,0-8.83-3T214.37,563Z" transform="translate(-36.65 -255.59)"/><path class="cls-1" d="M242.09,574.4V531.32h12.57A13.25,13.25,0,0,1,259,532a8.49,8.49,0,0,1,3.3,2.11,9.38,9.38,0,0,1,2.18,4,22.91,22.91,0,0,1,.74,6.26,28.47,28.47,0,0,1-.45,5.42,12,12,0,0,1-1.53,4,6.68,6.68,0,0,1-3.07,2.64,12,12,0,0,1-4.88.88h-3.87V574.4h-9.36Zm9.36-35.24v10.41H252c0.5,0,.89,0,1.15,0a5.64,5.64,0,0,0,.92-0.19,1.43,1.43,0,0,0,.79-0.49,5.13,5.13,0,0,0,.53-0.92,4.82,4.82,0,0,0,.36-1.5q0.09-.92.09-2.22a7.55,7.55,0,0,0-.74-3.95,2.88,2.88,0,0,0-2.58-1.11h-1.05Z" transform="translate(-36.65 -255.59)"/><path class="cls-3" d="M304,555.85V564q0,5.63-3.19,8.26t-8.92,2.64a11.81,11.81,0,0,1-8.28-2.91q-3.19-2.91-3.19-8.26v-20q0-6.41,2.82-9.59t8.86-3.18a16.17,16.17,0,0,1,4.54.61,11.63,11.63,0,0,1,3.69,1.8,8.19,8.19,0,0,1,2.53,3.12,10.23,10.23,0,0,1,.92,4.45v7.6H294.4v-5q0-3.87-2.27-3.87a1.81,1.81,0,0,0-1.78.85,5.31,5.31,0,0,0-.43,2.37v20.36a4.25,4.25,0,0,0,.61,2.3,1.84,1.84,0,0,0,1.61,1,2.13,2.13,0,0,0,1.59-.72,3.73,3.73,0,0,0,.68-2.56v-7.41H304Z" transform="translate(-36.65 -255.59)"/><path class="cls-3" d="M307.75,563V531.32H317v31c0,0.47,0,.84,0,1.11a8.5,8.5,0,0,0,.13,1.11,3.47,3.47,0,0,0,.35,1.11,2.13,2.13,0,0,0,.69.72,2,2,0,0,0,1.14.31,2.38,2.38,0,0,0,1-.19,1.49,1.49,0,0,0,.66-0.58,5.09,5.09,0,0,0,.39-0.76,3.5,3.5,0,0,0,.2-1c0-.41.06-0.72,0.07-0.93s0-.52,0-0.92v-31h9.25V563q0,5.84-2.8,8.87t-8.72,3q-6,0-8.83-3T307.75,563Z" transform="translate(-36.65 -255.59)"/><path class="cls-3" d="M335.47,574.4V531.32H348a13.27,13.27,0,0,1,4.35.65,8.48,8.48,0,0,1,3.3,2.11,9.35,9.35,0,0,1,2.18,4,22.85,22.85,0,0,1,.74,6.26,28.48,28.48,0,0,1-.45,5.42,12.08,12.08,0,0,1-1.53,4,6.67,6.67,0,0,1-3.07,2.64,12,12,0,0,1-4.88.88h-3.87V574.4h-9.36Zm9.36-35.24v10.41h0.54c0.5,0,.89,0,1.15,0a5.66,5.66,0,0,0,.92-0.19,1.43,1.43,0,0,0,.79-0.49,5.13,5.13,0,0,0,.53-0.92,4.78,4.78,0,0,0,.36-1.5,22,22,0,0,0,.09-2.22,7.53,7.53,0,0,0-.74-3.95,2.88,2.88,0,0,0-2.58-1.11h-1.05Z" transform="translate(-36.65 -255.59)"/></svg>