<?xml version="1.0" encoding="utf-8"?>
<!-- Generator: Adobe Illustrator 21.0.0, SVG Export Plug-In . SVG Version: 6.00 Build 0)  -->
<svg version="1.1" id="Calque_1" xmlns="http://www.w3.org/2000/svg" xmlns:xlink="http://www.w3.org/1999/xlink" x="0px" y="0px"
	 viewBox="0 0 100 125" style="enable-background:new 0 0 100 125;" xml:space="preserve">
<style type="text/css">
	.st0{fill:#FFFFFF;}
</style>
<g>
	<path class="st0" d="M79.3,116h-3V92.2c0-0.4-0.3-0.8-0.8-0.8H30.5c-0.4,0-0.8,0.3-0.8,0.8V116h-3c-1.4,0-2.4,1.1-2.4,2.4
		c0,1.4,1.1,2.4,2.4,2.4h52.6c1.4,0,2.4-1.1,2.4-2.4C81.7,117.1,80.6,116,79.3,116z"/>
	<path class="st0" d="M94.1,9.9c-0.5-0.5-1.3-0.9-2.1-0.9H81.7c0.1-1.6,0.1-3.2,0.1-5c0-0.7-0.6-1.3-1.3-1.3H25.5
		c-0.7,0-1.3,0.6-1.3,1.3c0,1.7,0,3.4,0.1,5H13.9c-0.8,0-1.5,0.3-2,0.8c-0.5,0.5-0.8,1.3-0.8,2c0,0.4,0.1,10.8,8.5,18.2
		c3.1,2.8,6.7,4.9,9.8,6.5c4.6,11.5,11.9,18.4,19.3,25c1,0.9,1.4,1.3,2.3,2c-3.5,3.5-6.4,14.5-20.4,24.7h45.1
		c-14-10.2-16.9-21.3-20.2-24.7c0.7-0.7,1.5-1.3,2.2-2c7.5-6.8,14.7-13.3,19.3-25.1c3.1-1.6,6.7-3.8,9.7-6.5
		C94.9,22.8,95,12.4,95,12C95,11.2,94.7,10.5,94.1,9.9z M23.3,26c-4-3.6-5.6-8.2-6.2-11.1h7.5c0.4,5.2,1.1,9.7,2.1,13.8
		C25.5,27.8,24.4,26.9,23.3,26z M82.6,25.9c-1,0.9-2.1,1.8-3.3,2.5c0.9-4,1.6-8.5,2.1-13.6h7.4C88.2,17.8,86.7,22.3,82.6,25.9z"/>
</g>
</svg>
